<svg width="80" height="100" viewBox="0 0 245 281" fill="none" xmlns="http://www.w3.org/2000/svg">
<path d="M244.998 103.165C244.996 102.977 244.981 102.793 244.959 102.612C244.955 102.584 244.956 102.556 244.952 102.528C244.949 102.505 244.943 102.483 244.939 102.46C244.908 102.255 244.868 102.056 244.813 101.861L244.811 101.85C244.808 101.84 244.803 101.831 244.8 101.821C244.745 101.63 244.677 101.446 244.601 101.268C244.593 101.247 244.587 101.225 244.577 101.205C244.571 101.192 244.565 101.18 244.559 101.168C244.479 100.993 244.388 100.825 244.289 100.664C244.279 100.648 244.27 100.63 244.26 100.613C244.245 100.589 244.227 100.567 244.211 100.544C244.111 100.392 244.005 100.246 243.889 100.111C243.882 100.103 243.877 100.095 243.87 100.088C243.868 100.085 243.865 100.082 243.864 100.079C243.859 100.074 243.853 100.069 243.849 100.064C243.725 99.924 243.591 99.7961 243.452 99.6754C243.435 99.6611 243.421 99.6435 243.405 99.6298L243.404 99.6293L214.897 75.8909C213.168 74.4514 210.749 74.8904 209.493 76.875C208.238 78.8579 208.623 81.6322 210.351 83.0718L229.219 98.783H157.721L66.5403 65.1219C66.2867 65.0286 66.0302 64.9665 65.7742 64.9342C63.9865 64.7091 62.2452 65.9451 61.6719 67.9862L53.029 98.7835H15.7814L122.5 9.92043L200.67 75.0112C202.398 76.4491 204.817 76.0111 206.073 74.0271C207.329 72.0442 206.945 69.2699 205.215 67.8298L124.773 0.846701C123.418 -0.282234 121.582 -0.282234 120.227 0.846701L1.59585 99.6304L1.59537 99.6309C1.5791 99.6446 1.56474 99.6622 1.54847 99.6765C1.40923 99.7967 1.27524 99.9245 1.15083 100.065C1.14604 100.071 1.14126 100.075 1.13647 100.08C1.13408 100.083 1.13169 100.086 1.12929 100.089C1.12307 100.096 1.11781 100.103 1.11207 100.111C0.995311 100.247 0.88908 100.393 0.788592 100.545C0.77328 100.568 0.755096 100.59 0.740262 100.613C0.729735 100.63 0.721122 100.648 0.711073 100.665C0.61202 100.825 0.521581 100.993 0.441669 101.168C0.435927 101.181 0.429228 101.193 0.423486 101.206C0.414394 101.226 0.408173 101.248 0.399081 101.268C0.322997 101.446 0.255048 101.63 0.200019 101.821C0.197148 101.831 0.192363 101.839 0.189013 101.85C0.188056 101.853 0.188056 101.858 0.186621 101.861C0.132549 102.055 0.0918748 102.255 0.0612499 102.459C0.0574218 102.482 0.0512011 102.505 0.04833 102.528C0.0445019 102.556 0.0440234 102.583 0.0411523 102.612C0.0196191 102.793 0.00526366 102.977 0.00287109 103.165C0.00287109 103.181 0.000957029 103.197 0.000957029 103.213L0 103.22V103.233C0 103.236 0 103.239 0 103.242V276.562C0 276.587 0.00239257 276.61 0.00287109 276.635C0.00382812 276.716 0.00861326 276.795 0.0138769 276.876C0.0181836 276.943 0.0215332 277.011 0.0282324 277.078C0.0358886 277.152 0.047373 277.227 0.0583788 277.301C0.0689061 277.371 0.0779979 277.442 0.0909178 277.51C0.104316 277.58 0.121543 277.648 0.137334 277.717C0.153603 277.788 0.169873 277.86 0.189492 277.93C0.208154 277.996 0.230644 278.06 0.251699 278.125C0.275146 278.196 0.297158 278.267 0.322997 278.335C0.346923 278.397 0.374199 278.458 0.400517 278.519C0.430663 278.588 0.459374 278.657 0.491913 278.725C0.519667 278.782 0.55077 278.837 0.580438 278.892C0.617763 278.961 0.654608 279.03 0.694803 279.096C0.725907 279.147 0.759881 279.196 0.792899 279.247C0.837879 279.315 0.883338 279.382 0.931668 279.447C0.944588 279.464 0.955594 279.483 0.968035 279.499C0.989568 279.527 1.01397 279.551 1.03551 279.578C1.09245 279.647 1.14987 279.715 1.21016 279.781C1.25084 279.826 1.29151 279.868 1.33362 279.91C1.39104 279.967 1.45038 280.022 1.51019 280.075C1.55613 280.116 1.60207 280.157 1.64944 280.195C1.71021 280.244 1.77338 280.29 1.83702 280.335C1.88487 280.369 1.93224 280.404 1.98153 280.435C2.05235 280.48 2.12508 280.521 2.1983 280.561C2.24232 280.585 2.28491 280.612 2.32989 280.634C2.41793 280.678 2.50933 280.716 2.60073 280.753C2.63231 280.765 2.66246 280.781 2.69404 280.792C2.81127 280.834 2.93042 280.87 3.05149 280.9C3.05867 280.902 3.06584 280.905 3.0735 280.907C3.33046 280.966 3.59604 280.999 3.86831 280.999H241.131C241.404 280.999 241.67 280.966 241.926 280.905C241.933 280.903 241.94 280.9 241.948 280.898C242.069 280.868 242.189 280.832 242.305 280.789C242.337 280.778 242.367 280.763 242.399 280.751C242.491 280.714 242.582 280.676 242.67 280.632C242.715 280.61 242.757 280.584 242.801 280.56C242.874 280.519 242.948 280.479 243.018 280.433C243.067 280.402 243.115 280.366 243.163 280.333C243.226 280.288 243.289 280.242 243.35 280.193C243.397 280.156 243.443 280.115 243.489 280.074C243.55 280.021 243.608 279.966 243.666 279.909C243.708 279.866 243.749 279.824 243.789 279.78C243.85 279.714 243.908 279.646 243.964 279.576C243.986 279.549 244.01 279.525 244.031 279.498C244.044 279.481 244.055 279.462 244.068 279.445C244.117 279.38 244.162 279.313 244.207 279.245C244.24 279.195 244.274 279.146 244.305 279.095C244.345 279.028 244.383 278.96 244.42 278.891C244.45 278.835 244.481 278.779 244.508 278.723C244.541 278.656 244.57 278.586 244.6 278.517C244.626 278.456 244.653 278.396 244.677 278.334C244.703 278.265 244.725 278.194 244.749 278.123C244.77 278.059 244.792 277.994 244.811 277.929C244.83 277.859 244.846 277.787 244.863 277.716C244.878 277.647 244.896 277.579 244.909 277.509C244.922 277.441 244.931 277.37 244.942 277.3C244.953 277.225 244.964 277.151 244.972 277.077C244.978 277.01 244.982 276.942 244.986 276.875C244.991 276.794 244.995 276.714 244.997 276.634C244.997 276.61 245 276.586 245 276.561V103.242C245 103.239 245 103.236 245 103.233V103.22V103.213C245 103.197 244.998 103.181 244.998 103.165ZM229.219 107.657L214.64 119.796L181.758 107.657H229.219ZM59.5301 104.58L67.8515 74.9288L155.927 107.444L206.883 126.256L189.145 141.025L114.375 113.421C112.341 112.673 110.162 113.952 109.507 116.285C108.852 118.617 109.97 121.117 112.004 121.868L181.39 147.484L171.91 155.377L82.462 122.356C80.4292 121.607 78.2491 122.887 77.594 125.22C76.9394 127.552 78.0572 130.052 80.0914 130.803L164.153 161.836L154.673 169.729L143.04 165.433C141.008 164.684 138.828 165.965 138.173 168.298C137.518 170.63 138.636 173.13 140.67 173.881L146.916 176.187L122.5 196.518L50.5431 136.603L59.5301 104.58ZM50.5383 107.657L43.9549 131.116L15.7814 107.657H50.5383ZM7.73663 111.924L91.6657 181.81L7.73663 266.732V111.924ZM14.1013 272.126L98.0821 187.152L120.228 205.593C120.245 205.606 120.263 205.615 120.279 205.629C120.43 205.75 120.584 205.862 120.745 205.955C120.75 205.957 120.754 205.961 120.758 205.964C120.76 205.965 120.762 205.966 120.764 205.967C120.926 206.06 121.095 206.137 121.266 206.203C121.321 206.224 121.377 206.241 121.433 206.26C121.554 206.3 121.676 206.333 121.799 206.359C121.858 206.371 121.915 206.385 121.974 206.394C122.142 206.421 122.31 206.437 122.479 206.438C122.485 206.438 122.492 206.44 122.497 206.44C122.498 206.44 122.499 206.44 122.5 206.44C122.501 206.44 122.502 206.44 122.503 206.44C122.509 206.44 122.515 206.438 122.521 206.438C122.691 206.437 122.859 206.421 123.026 206.394C123.085 206.385 123.144 206.371 123.203 206.358C123.326 206.333 123.447 206.3 123.567 206.26C123.623 206.242 123.68 206.224 123.735 206.202C123.906 206.137 124.074 206.06 124.237 205.967C124.239 205.966 124.241 205.965 124.243 205.964C124.248 205.961 124.253 205.957 124.258 205.954C124.418 205.86 124.572 205.749 124.722 205.629C124.738 205.615 124.756 205.606 124.773 205.593L146.918 187.153L230.899 272.126H14.1013V272.126ZM237.263 266.731L153.334 181.811L192.083 149.546C192.085 149.544 192.088 149.542 192.09 149.54L237.263 111.925V266.731V266.731Z" fill="rgb(180, 223, 180)"/>
<path d="M86.5264 112.439L100.621 117.641C101.015 117.786 101.414 117.855 101.807 117.855C103.442 117.855 104.961 116.657 105.489 114.777C106.144 112.445 105.026 109.945 102.992 109.194L88.897 103.991C86.8648 103.241 84.6842 104.523 84.0291 106.855C83.375 109.188 84.4928 111.687 86.5264 112.439Z" fill="rgb(180, 223, 180)"/>
<path d="M130.663 169.965C132.298 169.965 133.817 168.767 134.345 166.887C135 164.555 133.882 162.055 131.848 161.304L76.0259 140.696C73.9937 139.949 71.8131 141.228 71.158 143.561C70.5044 145.893 71.6222 148.393 73.6559 149.144L129.477 169.751C129.871 169.896 130.27 169.965 130.663 169.965Z" fill="rgb(180, 223, 180)"/>
</svg>
