<svg width="245" height="183" viewBox="0 0 245 183" fill="none" xmlns="http://www.w3.org/2000/svg">
<g id="sobre 1">
<path id="Vector" d="M0 0V9.75007V173.25V183H245V173.25V9.75007V0H0ZM149.552 93.9003L127.314 117.188C124.611 119.805 120.381 119.801 117.792 117.299L95.4438 93.9003L95.6398 93.7003L14.8919 8.51163H230.161L149.356 93.7045L149.552 93.9003ZM83.8063 93.7684L8.16667 169.615V14.5677L83.8063 93.7684ZM89.5638 99.7988L112.116 123.414C115.011 126.227 118.727 127.64 122.459 127.64C126.228 127.64 130.013 126.198 132.998 123.299L155.44 99.7988L229.908 174.488H15.0512L89.5638 99.7988ZM161.198 93.7726L236.833 14.5634V169.615L161.198 93.7726Z" fill="#F5F5F5"/>
</g>
</svg>
