<svg width="100" height="160" viewBox="0 0 100 160" fill="none" xmlns="http://www.w3.org/2000/svg">
<path d="M85.5598 160H14.4401C6.46503 160 0 154.748 0 148.268V20.5577C0 14.0785 6.46503 8.82617 14.4401 8.82617H85.5599C93.535 8.82617 100 14.0785 100 20.5577V148.268C100 154.748 93.5348 160 85.5598 160Z" fill="#D5D4D4"/>
<path d="M85.5598 151.174H14.4401C6.46503 151.174 0 145.921 0 139.442V11.7315C0 5.25236 6.46503 0 14.4401 0H85.5599C93.535 0 100 5.25236 100 11.7315V139.442C100 145.921 93.5348 151.174 85.5598 151.174Z" fill="#E6E6E6"/>
<path d="M88.6673 130.968H11.3325C9.35682 130.968 7.75516 129.667 7.75516 128.062V17.6778C7.75516 16.0727 9.35682 14.7715 11.3325 14.7715H88.6674C90.6431 14.7715 92.2448 16.0727 92.2448 17.6778V128.062C92.2448 129.667 90.6431 130.968 88.6673 130.968Z" fill="#B4DFB4"/>
<path d="M36.7361 9.58332C37.9312 9.58332 38.8999 8.79625 38.8999 7.82535C38.8999 6.85445 37.9312 6.06738 36.7361 6.06738C35.5411 6.06738 34.5723 6.85445 34.5723 7.82535C34.5723 8.79625 35.5411 9.58332 36.7361 9.58332Z" fill="#B4DFB4"/>
<path d="M63.9849 8.99725H46.3534C45.5567 8.99725 44.9109 8.47259 44.9109 7.82531C44.9109 7.17803 45.5567 6.65337 46.3534 6.65337H63.9849C64.7816 6.65337 65.4274 7.17803 65.4274 7.82531C65.4274 8.47259 64.7816 8.99725 63.9849 8.99725Z" fill="#B4DFB4"/>
<path d="M54.2281 146.509H45.7715C44.1611 146.509 42.8555 145.448 42.8555 144.14V138.648C42.8555 137.339 44.1611 136.279 45.7715 136.279H54.2281C55.8385 136.279 57.1441 137.339 57.1441 138.648V144.14C57.1441 145.448 55.8385 146.509 54.2281 146.509Z" fill="#B4DFB4"/>
</svg>
